<svg width="33" height="32" viewBox="0 0 33 32" fill="none" xmlns="http://www.w3.org/2000/svg">
<path opacity="0.6" d="M27.3196 17.4779C28.6868 17.4779 29.9417 17.9109 30.9713 18.6249C31.6566 17.2294 32 15.7175 32 14.206C32 9.38143 28.1231 4 21.425 4C18.4972 4 15.544 5.10951 13.3411 7.22652L10.6712 9.79088C10.5955 9.90647 10.5452 9.9439 10.4749 10.0562L21.7435 20.8518C22.7673 18.8864 24.8676 17.4779 27.3196 17.4779ZM21.1798 22.3914L9.5253 11.2261C8.89227 12.2883 8.5777 13.374 8.5777 14.4269C8.5777 15.8555 9.14968 17.2318 10.2526 18.2912L12.0403 20.0086L7.52802 23.814C7.17745 24.1067 7 24.5168 7 24.9281C7 25.3038 7.1481 25.6801 7.44762 25.9689L9.1108 27.5693C9.25251 27.7059 9.42108 27.8144 9.60678 27.8883C9.79248 27.9623 9.99163 28.0002 10.1927 28C10.6201 28 11.0461 27.8292 11.3504 27.4918L15.3083 23.1469L17.0643 24.8334C18.218 25.9415 19.722 26.482 21.2342 26.482C21.4556 26.482 21.6838 26.4694 21.9044 26.4464C21.3886 25.5756 21.0681 24.5798 21.0681 23.5072C21.0674 23.1401 21.0723 22.7845 21.1798 22.3914ZM27.2757 19.0175C24.6874 19.0175 22.587 20.9875 22.587 23.4677C22.587 25.9057 24.6869 27.9595 27.2757 27.9595C29.8205 27.9595 31.9643 25.9895 31.9643 23.4677C31.9648 21.0296 29.8645 19.0175 27.2757 19.0175Z" fill="#FB9600"/>
</svg>
