<svg width="96" height="96" viewBox="0 0 96 96" fill="none" xmlns="http://www.w3.org/2000/svg">
<g clip-path="url(#clip0_2_57)">
<path fill-rule="evenodd" clip-rule="evenodd" d="M55.1325 46.1192C56.1639 43.7184 56.5981 41.6153 56.8288 39.9765C58.9729 24.296 46.4882 15.7029 33.2163 11.7622C29.6609 10.7044 23.8528 10.2851 19.4696 11.8755C16.3891 12.9918 14.0007 15.0763 13.4036 18.517C12.7386 22.2656 14.5707 26.182 17.529 29.7149C21.8037 34.8281 28.4125 39.1551 32.565 41.0341C37.3553 43.1999 45.1041 45.743 52.9749 47.2333C51.6586 49.7352 49.6637 52.5045 46.5696 55.3633C45.199 56.6389 43.3128 57.7295 41.1687 58.6064C39.5538 55.4707 37.2468 52.5142 34.2478 49.9057C31.7237 47.7166 25.5627 44.1155 20.1074 43.0103C16.2127 42.2245 12.6844 42.7305 10.8117 45.5437C8.49116 49.0406 9.30533 52.2998 11.5716 55.0261C14.7606 58.8665 20.9352 61.5953 24.5856 62.2683C28.8332 63.0492 35.1298 62.3248 40.4086 60.4487C45.3076 71.3315 41.7386 84.1323 30.258 91.1726C29.9188 91.3856 29.8102 91.8402 30.0138 92.1877C30.2309 92.5351 30.6923 92.6436 31.0316 92.4305C43.1771 84.9791 46.9767 71.4358 41.8064 59.914C44.0862 58.9752 46.1082 57.8087 47.5738 56.4469C50.9799 53.2955 53.1241 50.2432 54.4947 47.508C55.9738 47.762 57.4531 47.9752 58.9187 48.1383C65.5003 48.8745 71.6748 48.5701 75.7323 46.4526C85.1095 41.5606 87.715 31.8692 85.9373 22.409C84.1731 13.0399 78.1072 3.93239 70.25 0.0755499C69.8836 -0.103986 69.4358 0.047461 69.2594 0.413319C69.0829 0.779312 69.2322 1.22212 69.5986 1.40152C77.0759 5.07149 82.8161 13.7662 84.4852 22.6812C86.1408 31.5054 83.7931 40.58 75.0538 45.1431C71.1862 47.153 65.3375 47.3694 59.0816 46.6705C57.7788 46.5251 56.4624 46.3389 55.1325 46.1192ZM39.7708 59.1398C38.2374 56.2165 36.0797 53.4578 33.2707 51.0208C30.8687 48.9365 25.0199 45.5103 19.8088 44.4579C16.5791 43.8053 13.5936 44.0247 12.0465 46.3609C10.1467 49.2101 10.866 51.8619 12.7115 54.0832C15.6699 57.6641 21.4509 60.1883 24.857 60.8158C28.8467 61.5517 34.7905 60.8904 39.7708 59.1398ZM53.6398 45.8559C54.6983 43.4739 55.1325 41.3892 55.3632 39.7764C57.3988 24.9091 45.3755 16.9144 32.7957 13.178C29.4845 12.1913 24.07 11.7804 19.9717 13.2639C17.4069 14.197 15.3577 15.8971 14.8556 18.7731C14.2585 22.1319 16.0091 25.6012 18.6553 28.7669C22.7807 33.7015 29.1724 37.8752 33.1757 39.6886C37.966 41.8547 45.7554 44.4031 53.6398 45.8559Z" fill="white"/>
<path fill-rule="evenodd" clip-rule="evenodd" d="M31.1837 91.3861C31.4551 90.6832 32.2286 88.6571 32.3372 88.3477C32.6357 87.4792 32.6629 87.0015 32.6357 86.513C32.6086 86.1208 32.5272 85.7177 32.5679 84.9795C32.595 84.5724 32.2693 84.2264 31.8622 84.206C31.4551 84.1856 31.1158 84.5005 31.0887 84.9076C31.0615 85.5766 31.1023 86.0014 31.143 86.3732C31.1837 86.802 31.1973 87.1359 30.9394 87.8673C30.8173 88.2242 29.9216 90.1363 29.6909 91.0862C29.5688 91.5815 29.6366 91.9533 29.7316 92.1162C29.8673 92.3496 30.1117 92.5694 30.4917 92.7201C30.9802 92.9114 31.7944 93.0227 32.7036 93.1679C33.5585 93.3022 34.522 93.4732 35.3633 93.8342C36.069 94.1423 36.6797 94.5874 36.9783 95.3283C37.1275 95.7069 37.5482 95.8942 37.9282 95.7449C38.3082 95.5956 38.4981 95.1655 38.3488 94.7868C37.9146 93.6659 37.019 92.9453 35.947 92.4799C34.997 92.0687 33.9114 91.8611 32.9343 91.7091C32.3508 91.6154 31.8079 91.5435 31.3872 91.4472C31.3194 91.4322 31.2515 91.4092 31.1837 91.3861Z" fill="white"/>
</g>
<defs>
<clipPath id="clip0_2_57">
<rect width="96" height="96" fill="white"/>
</clipPath>
</defs>
</svg>
