<svg width="28" height="28" viewBox="0 0 28 28" fill="none" xmlns="http://www.w3.org/2000/svg">
<path opacity="0.6" d="M25.662 21.2683C25.662 22.1165 25.1895 23.7498 24.129 24.647C23.9167 24.8103 23.7032 24.7182 23.7965 24.4802C24.1057 23.7242 24.8138 21.9753 24.4813 21.5728C24.248 21.2672 23.2797 21.2893 22.4537 21.3605C22.0757 21.4083 21.7455 21.4305 21.4877 21.483C21.2508 21.5028 21.2018 21.2928 21.4398 21.1295C21.7455 20.9137 22.0757 20.7503 22.4548 20.6302C23.7965 20.2288 25.3482 20.4703 25.5698 20.727C25.6118 20.776 25.6632 20.9137 25.6632 21.2672L25.662 21.2683ZM23.4208 22.778C23.1128 23.0133 22.7893 23.2277 22.4525 23.4197C19.9768 24.9072 16.7708 25.6865 13.9848 25.6865C9.50132 25.6865 5.49149 24.0333 2.44882 21.2672C2.18866 21.0548 2.40449 20.7468 2.70899 20.9137C5.98732 22.827 10.045 23.9843 14.2462 23.9843C17.0548 23.9764 19.8376 23.4479 22.4537 22.4257C22.6427 22.3545 22.855 22.2577 23.0405 22.19C23.4687 21.9975 23.8455 22.4735 23.4208 22.778ZM16.2225 9.90967C16.2225 8.69517 16.2703 7.98 15.8678 7.36633C15.5108 6.86117 14.896 6.55783 14.0385 6.60567C13.1075 6.657 12.1077 7.26717 11.8522 8.386C11.8032 8.64267 11.6527 8.89467 11.3435 8.9495L8.50149 8.58783C8.29849 8.54117 7.99049 8.386 8.09082 7.98C8.70099 4.76933 11.445 3.6505 14.0385 3.5H14.6487C16.072 3.5 17.9002 3.90717 19.0703 4.97467C20.4902 6.3 20.3397 8.08033 20.3397 10.0147V14.5962C20.3397 15.9705 20.8962 16.5795 21.4573 17.2958C21.609 17.5513 21.6603 17.8523 21.4048 18.06C20.6701 18.7156 19.9245 19.3589 19.1683 19.9897C18.9653 20.1448 18.599 20.1612 18.4567 20.0422C17.5583 19.2897 17.339 18.872 16.7825 18.1078C15.8142 19.124 15.0022 19.6852 14.035 19.9897C13.3548 20.1623 12.6554 20.247 11.9537 20.2417C9.51532 20.2417 7.58332 18.7215 7.58332 15.715C7.58332 13.3245 8.85499 11.6993 10.7333 10.9305C12.6117 10.1605 15.3417 9.9155 16.2213 9.91083L16.2225 9.90967ZM15.6648 15.967C16.2715 14.9497 16.2213 14.1167 16.2213 12.2512C15.4618 12.2512 14.6977 12.3037 14.0385 12.4588C12.8193 12.8123 11.8522 13.58 11.8522 15.2063C11.8522 16.478 12.5137 17.3437 13.6313 17.3437C13.7853 17.3437 13.9207 17.325 14.0385 17.2912C14.8202 17.0742 15.3078 16.6822 15.6648 15.967Z" fill="white"/>
</svg>
