<svg width="25" height="25" viewBox="0 0 25 25" fill="none" xmlns="http://www.w3.org/2000/svg">
<g clip-path="url(#clip0_2_816)">
<path d="M5.25811 15.754C5.25811 17.2024 4.0875 18.3731 2.63906 18.3731C1.19062 18.3731 0.0200195 17.2024 0.0200195 15.754C0.0200195 14.3056 1.19063 13.135 2.63916 13.135H5.25801V15.7541L5.25811 15.754ZM6.56768 15.754C6.56768 14.3056 7.73828 13.135 9.18672 13.135C10.6352 13.135 11.8058 14.3056 11.8058 15.7541V22.3016C11.8058 23.75 10.6352 24.9208 9.18662 24.9208C7.73838 24.9208 6.56768 23.75 6.56768 22.3016V15.7541V15.754Z" fill="#E01E5A"/>
<path d="M9.18652 5.23809C7.73809 5.23809 6.56738 4.06748 6.56738 2.61904C6.56738 1.17061 7.73818 0 9.18652 0C10.6349 0 11.8056 1.17061 11.8056 2.61904V5.23818H9.18643L9.18652 5.23809ZM9.18652 6.56748C10.635 6.56748 11.8056 7.73809 11.8056 9.18652C11.8056 10.635 10.635 11.8056 9.18643 11.8056H2.61914C1.17061 11.8056 0 10.635 0 9.18643C0 7.73818 1.17061 6.56748 2.61904 6.56748H9.18643H9.18652Z" fill="#36C5F0"/>
<path d="M19.6824 9.18652C19.6824 7.73809 20.853 6.56738 22.3014 6.56738C23.7498 6.56738 24.9205 7.73809 24.9205 9.18652C24.9205 10.635 23.7498 11.8056 22.3014 11.8056H19.6824V9.18643V9.18652ZM18.3729 9.18652C18.3729 10.635 17.2021 11.8056 15.7537 11.8056C14.3054 11.8056 13.1348 10.635 13.1348 9.18643V2.61914C13.1348 1.17061 14.3054 0 15.7537 0C17.2021 0 18.3728 1.17061 18.3728 2.61904V9.18643L18.3729 9.18652Z" fill="#2EB67D"/>
<path d="M15.7537 19.6827C17.2021 19.6827 18.3729 20.8533 18.3729 22.3016C18.3729 23.75 17.2021 24.9208 15.7537 24.9208C14.3054 24.9208 13.1348 23.75 13.1348 22.3016V19.6827H15.7538H15.7537ZM15.7537 18.3731C14.3054 18.3731 13.1348 17.2024 13.1348 15.754C13.1348 14.3056 14.3054 13.135 15.7538 13.135H22.3212C23.7696 13.135 24.9403 14.3056 24.9403 15.7541C24.9403 17.2024 23.7696 18.3731 22.3212 18.3731H15.7538H15.7537Z" fill="#ECB22E"/>
</g>
<defs>
<clipPath id="clip0_2_816">
<rect width="25" height="25" fill="white"/>
</clipPath>
</defs>
</svg>
