<svg width="34" height="34" viewBox="0 0 34 34" fill="none" xmlns="http://www.w3.org/2000/svg">
<path d="M26.3829 10.8852C26.1564 10.6651 25.8387 10.5651 25.5277 10.6163C25.2162 10.6672 24.9472 10.8628 24.8027 11.1434C24.3057 12.1089 23.6745 12.9961 22.9318 13.7805C23.0058 13.2139 23.0431 12.6439 23.0431 12.0724C23.0431 10.9759 22.8961 9.84742 22.6061 8.71805C21.6527 5.00853 19.1525 1.87144 15.7468 0.111205C15.4503 -0.0419942 15.097 -0.0366153 14.8053 0.125549C14.5136 0.287779 14.3226 0.585213 14.2964 0.917908C14.0309 4.28895 12.2945 7.35586 9.52981 9.33424C9.49322 9.3606 9.4569 9.38729 9.42057 9.41386C9.34534 9.46891 9.27441 9.52097 9.20814 9.56467C9.19778 9.57157 9.18749 9.57861 9.17739 9.58585C7.43861 10.8308 6.00391 12.4903 5.0282 14.3854C4.03675 16.3131 3.53406 18.3818 3.53406 20.5336C3.53406 21.6299 3.68101 22.7583 3.97088 23.8879C5.50055 29.8417 10.8585 33.9999 17.0004 33.9999C24.4253 33.9999 30.4659 27.9589 30.4659 20.5336C30.4659 16.872 29.0159 13.4454 26.3829 10.8852Z" fill="url(#paint0_linear_2_1003)"/>
<circle cx="16" cy="20" r="4" fill="white"/>
<defs>
<linearGradient id="paint0_linear_2_1003" x1="17" y1="0" x2="17" y2="33.9999" gradientUnits="userSpaceOnUse">
<stop stop-color="#CE9FFC"/>
<stop offset="0.505208" stop-color="#A582F7"/>
<stop offset="1" stop-color="#7367F0"/>
</linearGradient>
</defs>
</svg>
