<svg width="535" height="439" viewBox="0 0 535 439" fill="none" xmlns="http://www.w3.org/2000/svg">
<path d="M62.4004 381C75.324 381 85.8007 370.92 85.8007 358.485C85.8007 346.05 75.324 335.97 62.4004 335.97C49.4767 335.97 39.0001 346.05 39.0001 358.485C39.0001 370.92 49.4767 381 62.4004 381Z" fill="#FFCC00"/>
<path fill-rule="evenodd" clip-rule="evenodd" d="M74.3998 335.554V356.559C74.3998 358.673 74.2414 360.644 73.9452 361.65C73.1967 364.177 71.5748 366.383 69.3472 367.903C67.1197 369.423 64.4199 370.167 61.6938 370.011C58.9677 369.855 56.3783 368.809 54.3535 367.046C52.3286 365.283 50.9894 362.908 50.557 360.313C50.1247 357.719 50.6251 355.06 51.9755 352.776C53.326 350.492 55.4457 348.72 57.9846 347.752C60.5234 346.784 63.3295 346.678 65.9393 347.452C68.5491 348.226 70.8065 349.833 72.3386 352.008L72.0012 350.029V325L87 329.618V339.433L74.3998 335.554Z" fill="#FF3333"/>
<circle cx="338.498" cy="365.498" r="63.4983" fill="#FF5502"/>
<path d="M375.182 388.812H337.833V343.691C341.293 340.531 345.775 338.625 350.671 338.625C361.506 338.625 370.313 347.961 370.51 359.558C371.971 359.002 373.543 358.7 375.182 358.7C382.917 358.7 389.187 365.441 389.187 373.756C389.187 382.072 382.917 388.812 375.182 388.812Z" fill="white"/>
<path d="M334.437 347.75H329.875V388.812H334.437V347.75Z" fill="white"/>
<path d="M320.75 352.312H325.312V388.812H320.75V352.312Z" fill="white"/>
<path d="M316.187 361.437H311.625V388.812H316.187V361.437Z" fill="white"/>
<path d="M302.5 356.875H307.062V388.812H302.5V356.875Z" fill="white"/>
<path d="M297.937 366H293.375V388.812H297.937V366Z" fill="white"/>
<circle cx="495.869" cy="262.869" r="31.8953" fill="url(#paint0_linear_2_538)"/>
<path d="M488.477 244.011L509.233 239.885C510.179 239.697 511.061 240.421 511.061 241.385V273.188C511.061 275.896 509.167 278.234 506.519 278.798L504.686 279.188C501.491 279.867 498.482 277.431 498.482 274.165C498.482 271.865 500.033 269.853 502.258 269.268L507.455 267.9C508.16 267.714 508.652 267.077 508.652 266.347V251.581C508.652 250.903 508.028 250.395 507.364 250.533L490.067 254.128C489.535 254.239 489.153 254.708 489.153 255.251V277.301C489.153 280.263 487.081 282.821 484.184 283.435L482.927 283.702C479.635 284.4 476.537 281.89 476.537 278.525C476.537 276.381 477.98 274.505 480.052 273.955L485.493 272.513C486.163 272.335 486.63 271.728 486.63 271.034V246.261C486.63 245.166 487.403 244.224 488.477 244.011Z" fill="url(#paint1_radial_2_538)"/>
<path fill-rule="evenodd" clip-rule="evenodd" d="M530.062 262.5C530.062 281.588 514.588 297.062 495.5 297.062C476.412 297.062 460.938 281.588 460.938 262.5C460.938 243.412 476.412 227.938 495.5 227.938C514.588 227.938 530.062 243.412 530.062 262.5ZM527.004 262.538C527.004 279.958 512.899 294.08 495.5 294.08C478.101 294.08 463.996 279.958 463.996 262.538C463.996 245.118 478.101 230.996 495.5 230.996C512.899 230.996 527.004 245.118 527.004 262.538Z" fill="url(#paint2_radial_2_538)"/>
<path d="M5.625 91.9943C5.625 113.737 23.2563 131.37 45.0015 131.37C66.7467 131.37 84.375 113.737 84.375 91.9943C84.375 70.2458 66.7467 52.6199 45.0015 52.6199C23.2563 52.6199 5.625 70.2458 5.625 91.9943Z" fill="url(#paint3_linear_2_538)"/>
<path fill-rule="evenodd" clip-rule="evenodd" d="M55.2538 117.665C56.2862 116.671 62.3449 110.836 65.8296 106.993C69.1509 103.321 70.8211 98.5952 70.5211 93.6952C70.213 88.6488 67.8578 83.9753 63.8847 80.5433C57.3232 74.87 46.7178 74.9853 40.2442 80.7951C37.8828 82.9112 35.2154 85.8139 35.1016 85.9383C33.3993 87.7894 33.5251 90.6715 35.3728 92.3728C37.2236 94.0713 40.0973 93.9508 41.8041 92.1017C41.827 92.0744 44.2873 89.3971 46.3171 87.5794C49.7253 84.5198 55.176 85.0501 57.9358 87.4361C60.0381 89.2507 61.2801 91.6696 61.4377 94.2468C61.586 96.6789 60.7494 99.0356 59.0868 100.872C55.8026 104.501 49.7567 110.319 48.9212 111.123C48.8623 111.179 48.8295 111.211 48.825 111.216C47.0095 112.955 46.9433 115.833 48.6816 117.654C49.5752 118.587 50.7686 119.06 51.9717 119.06C53.0998 119.06 54.232 118.64 55.1114 117.802C55.1307 117.783 55.1791 117.737 55.2538 117.665ZM26.6705 103.131C29.8998 105.924 34.1061 107.317 38.3183 107.317C42.6685 107.317 47.0239 105.833 50.3105 102.88C52.4759 100.935 54.904 98.3317 55.3756 97.8259C55.4179 97.7807 55.4445 97.7522 55.4536 97.7425C57.155 95.8914 57.0317 93.0073 55.1823 91.3078C53.3352 89.604 50.4546 89.7227 48.7545 91.5757C48.7537 91.5767 48.7495 91.5814 48.742 91.5894C48.5479 91.799 46.1921 94.3449 44.2395 96.101C40.8295 99.1547 35.3807 98.6322 32.6176 96.2409C30.5176 94.4249 29.2756 92.0054 29.1166 89.4261C28.9683 86.9965 29.8064 84.6452 31.4689 82.802C34.9869 78.9198 41.6623 72.5274 41.7307 72.4624C43.5472 70.7249 43.609 67.8433 41.8746 66.0242C40.1358 64.2076 37.2584 64.1381 35.4429 65.8779L35.4129 65.9066C34.8518 66.4451 28.3758 72.6574 24.729 76.6866C21.4025 80.3572 19.739 85.0822 20.0331 89.9804C20.3438 95.0294 22.699 99.6997 26.6705 103.131Z" fill="white"/>
<circle cx="176.5" cy="223.5" r="85.5" fill="#1ED760"/>
<path d="M214.283 256.765C212.825 259.078 209.716 259.725 207.287 258.338C188.144 247.237 164.144 244.739 135.77 250.844C133.049 251.399 130.329 249.827 129.746 247.237C129.163 244.646 130.815 242.056 133.535 241.501C164.532 234.748 191.156 237.616 212.534 250.104C214.963 251.492 215.74 254.452 214.283 256.765ZM224.194 235.673C222.348 238.541 218.461 239.373 215.449 237.708C193.586 224.85 160.257 221.149 134.41 228.642C131.009 229.567 127.511 227.81 126.539 224.665C125.567 221.427 127.414 218.096 130.815 217.171C160.354 208.661 197.084 212.731 222.251 227.44C225.068 229.105 226.04 232.805 224.194 235.673ZM225.068 213.656C198.833 198.855 155.593 197.467 130.523 204.683C126.539 205.885 122.264 203.758 121 199.872C119.737 196.079 122.069 192.009 126.053 190.806C154.815 182.481 202.622 184.146 232.745 201.167C236.34 203.203 237.506 207.643 235.368 211.066C233.328 214.581 228.664 215.784 225.068 213.656Z" fill="white"/>
<circle cx="376" cy="138" r="50" fill="#F8591A"/>
<path d="M399.675 146.432C396.686 145.172 394.196 142.609 392.338 140.014C390.207 137.035 388.024 134.107 385.636 131.329C383.391 128.721 381.003 126.221 378.409 123.962C375.82 121.706 373.003 119.561 369.901 118.071C367.821 117.068 365.678 116.314 363.461 115.678C363.21 115.608 362.533 115.301 362.333 115.609C362.21 115.801 362.304 116.158 362.33 116.37C362.384 116.83 362.439 117.288 362.496 117.747C363.159 123.249 363.41 129.058 361.702 134.401C360.785 137.281 359.113 139.912 356.885 141.952C355.037 143.641 352.4 145.351 349.78 145.229C342.201 144.909 345.603 132.401 347.032 128.189C351.324 115.746 363.394 107.128 376.5 107.128C393.578 107.128 407.767 121.541 407.657 138.5C407.616 143.54 406 149.1 399.675 146.432ZM414.473 127.516C409.714 111.031 394.522 98.9688 376.5 98.9688C358.481 98.9688 343.287 111.031 338.527 127.516C336.828 133.405 336.522 139.644 337.632 145.669C341.004 164.081 357.118 178.031 376.5 178.031C395.885 178.031 411.996 164.081 415.374 145.669C416.479 139.643 416.168 133.406 414.473 127.516Z" fill="white"/>
<path d="M278.966 41.4756L215.814 6.79255C213.116 5.3278 210.702 5.465 209.235 6.83784C208.194 7.79897 207.625 9.35497 207.625 11.3685V80.597C207.625 82.6117 208.24 84.1677 209.235 85.1279C210.749 86.5466 213.116 86.6836 215.814 85.173L278.966 50.4897C283.511 48.0189 283.511 43.9928 278.966 41.4756Z" fill="#F1471D"/>
<path d="M273.567 53.5362C274.325 51.02 274.704 48.3197 274.704 45.5751C274.704 29.4227 261.116 16.2908 244.406 16.2908C227.695 16.2908 214.108 29.4227 214.108 45.5751C214.108 59.1188 223.624 70.5123 236.548 73.8532L273.567 53.5362Z" fill="#FCD117"/>
<path d="M263.935 46.006C263.935 56.1141 255.459 64.3086 244.999 64.3086C234.541 64.3086 226.064 56.1141 226.064 46.006C226.064 35.8973 234.541 27.7034 244.999 27.7034C255.458 27.7031 263.935 35.897 263.935 46.006Z" fill="#F48B15"/>
<path d="M245 36.3976V47.6521C244.337 47.2877 243.58 47.0581 242.775 47.0581C240.314 47.0581 238.372 48.9812 238.372 51.3129C238.372 53.6936 240.36 55.5693 242.775 55.5693C245.237 55.5693 247.367 53.6466 247.367 51.3129V40.973H251.627V36.3976H245Z" fill="white"/>
<defs>
<linearGradient id="paint0_linear_2_538" x1="495.869" y1="230.974" x2="495.869" y2="294.764" gradientUnits="userSpaceOnUse">
<stop stop-color="white"/>
<stop offset="1" stop-color="#DDE2E7"/>
</linearGradient>
<radialGradient id="paint1_radial_2_538" cx="0" cy="0" r="1" gradientUnits="userSpaceOnUse" gradientTransform="translate(476.537 291.481) rotate(-55.1325) scale(69.1519 54.3044)">
<stop stop-color="#7A66FB"/>
<stop offset="0.440198" stop-color="#52A2F4"/>
<stop offset="0.702" stop-color="#FC5D6D"/>
<stop offset="1" stop-color="#E85E7B"/>
</radialGradient>
<radialGradient id="paint2_radial_2_538" cx="0" cy="0" r="1" gradientUnits="userSpaceOnUse" gradientTransform="translate(476.537 291.481) rotate(-55.1325) scale(69.1519 54.3044)">
<stop stop-color="#7A66FB"/>
<stop offset="0.440198" stop-color="#52A2F4"/>
<stop offset="0.702" stop-color="#FC5D6D"/>
<stop offset="1" stop-color="#E85E7B"/>
</radialGradient>
<linearGradient id="paint3_linear_2_538" x1="5.625" y1="131.37" x2="5.625" y2="52.6199" gradientUnits="userSpaceOnUse">
<stop stop-color="#2255FF"/>
<stop offset="1" stop-color="#00AAFF"/>
</linearGradient>
</defs>
</svg>
