<svg width="59" height="59" viewBox="0 0 59 59" fill="none" xmlns="http://www.w3.org/2000/svg">
<circle opacity="0.1" cx="29.5" cy="29.5" r="29.5" fill="url(#paint0_linear_2_288)"/>
<path d="M34.4792 40.7499C33.9708 40.9654 33.3977 40.9701 32.8859 40.7631C32.3741 40.556 31.9655 40.1541 31.75 39.6458C31.5345 39.1374 31.5298 38.5643 31.7369 38.0525C31.9439 37.5407 32.3458 37.1321 32.8542 36.9166C33.1059 36.8099 33.3761 36.7538 33.6495 36.7516C33.9229 36.7493 34.194 36.8009 34.4474 36.9034C34.7009 37.006 34.9316 37.1574 35.1265 37.3491C35.3214 37.5408 35.4766 37.7691 35.5833 38.0208C35.69 38.2725 35.7461 38.5427 35.7484 38.8161C35.7506 39.0895 35.699 39.3606 35.5965 39.614C35.494 39.8674 35.3425 40.0982 35.1508 40.2931C34.9591 40.488 34.7309 40.6432 34.4792 40.7499ZM24.9375 24.2499C26.0938 24.2499 27.0208 23.3228 27.0208 22.1666C27.0208 21.6141 26.8013 21.0841 26.4106 20.6934C26.0199 20.3027 25.49 20.0833 24.9375 20.0833C23.7708 20.0833 22.8542 21.0208 22.8542 22.1666C22.8542 23.3228 23.7708 24.2499 24.9375 24.2499ZM39.9688 35.0208L35.9583 36.7499C36.1875 36.9791 36.3958 37.2708 36.5417 37.6041C36.6875 37.9478 36.75 38.3124 36.7917 38.6458L40.7813 36.9374L39.9688 35.0208ZM27.5833 27.1458L28.3542 29.0312C28.1042 28.9374 27.875 28.8124 27.6875 28.6874C27.0625 28.2812 26.6042 27.7708 26.3021 27.1666L25.5313 25.5312C25.3333 25.1666 25.0938 24.8958 24.7604 24.7083C24.4583 24.5312 24.1354 24.4374 23.8021 24.4374C23.4688 24.4374 23.1563 24.5208 22.8542 24.6666C21.3958 25.8124 21.0313 27.9374 21.0313 27.9374L20.6771 29.5728C20.5833 30.1145 20.5313 30.6562 20.5313 31.2083V36.3749L18.0417 39.7395L19.6042 40.9166L22.4896 37.0103L22.6667 33.6249L24.4167 36.0624V40.9166H26.3438V34.6041L24.4167 31.8853V31.2083C24.4167 30.7499 24.4167 30.302 24.5313 29.8645L24.8958 28.6145C25.2917 29.1874 25.7708 29.6874 26.3438 30.1145C26.8125 30.4687 28.125 31.0937 29.3646 31.3958L31.5833 36.5416C31.8125 36.3124 32.1042 36.1041 32.4479 35.9583C32.7813 35.8124 33.1458 35.7499 33.4792 35.7083L29.5 26.3333L27.5833 27.1458ZM33 30.6249L35.0417 35.4166L40.9063 32.9062L38.875 28.1249" fill="url(#paint1_linear_2_288)"/>
<defs>
<linearGradient id="paint0_linear_2_288" x1="29.5" y1="0" x2="29.5" y2="59" gradientUnits="userSpaceOnUse">
<stop stop-color="#CE9FFC"/>
<stop offset="0.505208" stop-color="#A582F7"/>
<stop offset="1" stop-color="#7367F0"/>
</linearGradient>
<linearGradient id="paint1_linear_2_288" x1="29.474" y1="20.0833" x2="29.474" y2="40.9166" gradientUnits="userSpaceOnUse">
<stop stop-color="#CE9FFC"/>
<stop offset="0.505208" stop-color="#A582F7"/>
<stop offset="1" stop-color="#7367F0"/>
</linearGradient>
</defs>
</svg>
