<svg width="59" height="59" viewBox="0 0 59 59" fill="none" xmlns="http://www.w3.org/2000/svg">
<circle cx="29.5" cy="29.5" r="29.5" fill="white"/>
<g clip-path="url(#clip0_2_296)">
<path d="M35.375 27.75C32.266 27.75 29.75 30.266 29.75 33.375C29.75 36.484 32.266 39 35.375 39C38.484 39 41 36.484 41 33.375C41 30.266 38.484 27.75 35.375 27.75ZM37.875 33.6207C37.875 33.8293 37.7043 34 37.4957 34H35.1297C34.9211 34 34.7504 33.8293 34.7504 33.6207V30.6297C34.7504 30.4211 34.9211 30.2504 35.1297 30.2504H35.6207C35.8293 30.2504 36 30.4211 36 30.6297V32.75H37.4957C37.7043 32.75 37.875 32.9207 37.875 33.1293V33.6207ZM35.375 26.5C35.5859 26.5 35.7938 26.5129 36 26.5316V24.625C36 23.625 35.125 22.75 34.125 22.75H31V20.875C31 19.875 30.125 19 29.125 19H22.875C21.875 19 21 19.875 21 20.875V22.75H17.875C16.875 22.75 16 23.625 16 24.625V27.75H31.4344C32.5516 26.9652 33.909 26.5 35.375 26.5ZM28.5 22.75H23.5V21.5H28.5V22.75ZM28.7664 31.5H24.125C23.7797 31.5 23.5 31.2203 23.5 30.875V29H16V34.625C16 35.625 16.875 36.5 17.875 36.5H29.259C28.7773 35.5609 28.5 34.5008 28.5 33.375C28.5 32.7242 28.5969 32.0969 28.7664 31.5Z" fill="#111111"/>
</g>
<defs>
<clipPath id="clip0_2_296">
<rect width="25" height="20" fill="white" transform="translate(16 19)"/>
</clipPath>
</defs>
</svg>
