<svg width="2431" height="1147" viewBox="0 0 2431 1147" fill="none" xmlns="http://www.w3.org/2000/svg">
<rect width="1477" height="140" transform="matrix(0.999274 -0.0381038 0.0319641 0.999489 475 532)" fill="url(#paint0_linear_2_45)"/>
<g filter="url(#filter0_d_2_45)">
<rect width="1477" height="140" transform="matrix(-0.999274 -0.0381038 -0.0319641 0.999489 1956 532)" fill="url(#paint1_linear_2_45)"/>
</g>
<g clip-path="url(#clip0_2_45)">
<path fill-rule="evenodd" clip-rule="evenodd" d="M684.636 549.814C685.228 548.367 686.012 547.243 686.988 546.431C687.114 546.379 687.25 546.361 687.386 546.343C687.522 546.336 687.849 546.336 688.379 546.355C688.672 546.365 688.919 546.396 689.143 546.438C689.367 546.491 689.589 546.578 689.822 546.699C690.054 546.831 690.331 546.999 690.639 547.224L686.504 550.286L687.424 551.074L687.051 561.74C686.043 561.208 685.215 560.378 684.686 559.366C683.945 557.974 683.615 556.123 683.695 553.834C683.727 552.593 684.045 551.25 684.636 549.814ZM684.408 545.708C684.644 545.717 684.947 545.772 685.316 545.864C685.685 545.956 686.02 546.047 686.333 546.137C684.09 547.041 682.321 548.593 681.036 550.817C679.918 552.777 679.3 554.979 679.232 557.245C679.131 560.143 680.047 562.659 681.992 564.792C683.936 566.926 686.356 568.049 689.241 568.149C692.024 568.246 694.428 567.258 696.418 565.194C698.408 563.129 699.465 560.649 699.567 557.751C699.286 558.351 698.964 558.848 698.623 559.242C698.189 559.724 697.699 560.17 697.178 560.558C696.772 560.882 696.402 561.129 696.081 561.287C695.759 561.445 695.347 561.623 694.833 561.819L695.33 547.591C695.97 547.353 696.487 547.1 696.88 546.832C697.272 546.575 697.703 546.183 698.173 545.669C699.378 544.424 700.071 543.004 700.261 541.43C699.397 541.953 698.628 542.332 697.942 542.579C697.257 542.815 696.496 542.969 695.659 543.019C695.524 543.014 695.343 543.019 695.106 543.034C694.182 543.001 692.82 542.593 691.02 541.807C689.22 541.022 687.79 540.611 686.731 540.574C684.646 540.501 682.944 541.424 681.614 543.319C680.427 545.017 679.78 547.06 679.696 549.461C679.879 548.734 680.287 548.048 680.919 547.404C681.387 546.924 681.92 546.514 682.507 546.195C683.083 545.854 683.72 545.684 684.408 545.708ZM702.86 568.421L706.431 564.707L704.759 562.832L705.118 552.56L706.133 551.93L708.82 554.123L708.346 567.675C708.32 568.442 708.252 569.094 708.143 569.632C708.046 570.137 707.815 570.614 707.485 571.009L706.474 572.182C706.016 572.708 705.46 573.117 704.795 573.41C706.118 573.321 707.21 573.065 708.06 572.632C708.921 572.2 709.815 571.497 710.74 570.536C711.419 569.814 711.941 569.099 712.293 568.377C712.657 567.634 712.9 566.841 713.029 566.032L713.56 550.845L712.375 550.883L708.755 548.262L705.995 550.378L705.144 549.875L705.407 542.366L704.678 540.636L701.042 543.952L700.361 563.423L699.246 564.649L702.86 568.421ZM714.774 564.524L720.989 568.771L727.251 562.622L723.89 564.842L719.968 561.815L720.062 559.132L727.439 554.005L723.08 547.678L715.6 552.519L715.211 563.659L714.774 564.524ZM736.597 545.395L736.338 552.78C735.807 552.818 735.375 552.893 735.044 553.017C734.712 553.141 734.355 553.354 733.972 553.657C732.884 554.443 732.329 555.473 732.284 556.759C732.259 557.164 732.301 557.561 732.401 557.948C732.784 557.645 733.152 557.444 733.505 557.354C733.869 557.265 734.31 557.224 734.84 557.243C735.099 557.252 735.312 557.293 735.468 557.344C735.624 557.406 735.857 557.515 736.167 557.684L735.913 564.945L741.175 570.626L746.367 565.705L752.228 571.012L761.327 562.783L761.838 548.171L756.531 543.798L752.381 547.288L747.021 543.467L741.987 547.4L742.071 544.999C742.098 544.209 741.566 543.299 740.463 542.256C740.133 542.007 739.815 541.748 739.52 541.489C739.224 541.231 739.057 540.863 739.028 540.4C738.996 540.026 738.986 539.653 738.988 539.269C739.019 538.379 739.349 537.668 739.975 537.17C739.752 537.117 739.527 537.087 739.302 537.068C738.119 537.027 737.054 537.486 736.118 538.436C735.171 539.396 734.682 540.474 734.639 541.692C734.633 541.872 734.646 542.132 734.691 542.45C734.872 543.743 735.503 544.724 736.597 545.395ZM762.262 566.383L767.032 569.993L770.699 566.756L774.821 569.869L778.586 566.083L777.324 566.039L775.771 564.314L776.175 552.746L775.302 552.874L771.321 549.292L763.358 554.388L762.962 565.719L762.262 566.383ZM786.393 550.585C785.906 550.331 785.443 550.01 785.027 549.646L778.434 553.965L778.166 561.632L778.747 562.127L782.578 562.26L777.306 570.735C778.095 570.107 778.697 569.688 779.132 569.489C779.74 569.216 780.41 569.093 781.086 569.117C781.931 569.146 782.603 569.271 783.126 569.481C783.649 569.691 784.178 570.06 784.712 570.586L791.196 565.834L791.468 558.055L791.011 557.565L786.786 557.417L786.8 557.023L790.783 550.558C790.38 550.781 790.06 550.905 789.822 550.942C789.437 550.974 789.053 550.983 788.67 550.958L787.836 550.929C787.329 550.923 786.837 550.804 786.393 550.585ZM795.694 571.105L799.299 567.359L797.628 565.483L797.987 555.212L798.957 554.568L801.688 556.797L801.216 570.304C801.204 570.958 801.136 571.611 801.012 572.261C800.904 572.765 800.674 573.231 800.31 573.636C800.086 573.888 799.791 574.262 799.402 574.756C798.909 575.292 798.319 575.723 797.653 576.039C798.863 575.979 799.955 575.724 800.907 575.271C801.859 574.819 802.763 574.128 803.608 573.21C804.241 572.52 804.74 571.793 805.105 571.027C805.471 570.26 805.724 569.468 805.865 568.66L806.396 553.484L805.242 553.568L801.577 550.945L798.819 553.028L797.968 552.524L798.229 545.049L797.535 543.286L793.866 546.601L793.183 566.118L792.07 567.298L795.694 571.105ZM815.496 548.428L812.048 545.418L809.053 548.474L811.955 551.307L815.496 548.428ZM809.618 557.152L809.242 567.897L808.447 569.021L809.788 569.068L812.773 571.779L816.111 568.927L820.14 572.431L823.909 568.533L822.811 567.038L823.163 556.97L824.126 556.529L826.142 558.891L825.796 568.757L829.358 572.087L833.048 568.185L831.392 568.128L830.499 566.55L830.875 555.805L831.383 554.829L830.429 554.999L826.902 551.987L823.224 555.538L819.192 552.113L815.621 555.826L816.962 555.873L818.065 557.255L817.72 567.12L815.405 567.83L813.98 566.629L814.367 555.568L814.864 554.908L810.869 551.721L807.387 555.155L808.523 555.556L809.618 557.152ZM880.232 570.023L879.145 568.517L879.497 558.449L880.46 558.008L882.476 560.37L882.129 570.281L885.692 573.566L889.382 569.664L887.726 569.607L886.834 568.029L887.209 557.284L887.716 556.353L886.764 556.478L883.236 553.465L879.558 557.017L875.526 553.592L871.956 557.305L873.297 557.352L874.399 558.734L874.052 568.644L872.566 570.489L876.849 573.528L880.232 570.023ZM833.805 568.483C834.334 568.501 834.805 568.585 835.24 568.736C835.675 568.887 836.084 569.127 836.501 569.469C836.906 569.81 837.21 570.137 837.391 570.448C837.572 570.759 837.727 571.182 837.844 571.705L835.7 574.283L833.423 577.128C833.987 576.831 834.467 576.656 834.863 576.602C835.26 576.548 835.836 576.535 836.602 576.561C837.49 576.671 838.248 576.912 838.868 577.272C839.487 577.633 840.043 578.171 840.549 578.878C841.827 578.448 843.329 577.439 845.065 575.874C846.801 574.298 847.682 572.985 847.718 571.937C847.725 571.756 847.553 571.175 847.203 570.226C846.853 569.254 846.697 568.232 846.734 567.195L847.163 554.906L841.796 551.275L834.718 555.928L834.309 567.62L833.805 568.483ZM847.9 555.451L850.188 555.53L849.708 569.24L849.119 570.292L850.459 570.339L853.267 572.65L857.122 568.551L855.499 568.494L854.469 567.307L854.866 555.964L857.299 553.159L854.967 553.078L855.23 545.535L850.378 549.757L850.273 552.756L847.9 555.451ZM857.411 569.306L862.18 572.949L870.919 567.282L871.325 555.669L870.45 555.842L866.459 552.226L858.496 557.321L858.099 568.664L857.411 569.306ZM898.166 551.107L898.037 554.783C897.35 554.759 896.773 554.807 896.294 554.937C895.816 555.067 895.355 555.333 894.901 555.735C894.447 556.137 894.182 556.624 894.084 557.174C893.986 557.724 893.915 558.444 893.884 559.346C893.871 559.718 893.851 559.965 893.812 560.099C894.419 559.195 895.244 558.84 896.264 559.033C896.948 559.159 897.478 559.471 897.856 559.958L897.642 566.08C896.414 566.67 895.326 567.467 894.4 568.462C893.355 569.611 892.637 570.805 892.254 572.067C892.717 571.734 893.201 571.434 893.706 571.192C894.108 571.003 894.667 570.831 895.384 570.641C895.646 570.571 895.953 570.492 896.306 570.414C896.647 570.335 897.043 570.304 897.494 570.32L897.081 582.124L902.401 578.077L904.092 579.4L904.327 572.68L906.509 573.513L914.149 568.598L914.757 551.212L910.114 547.212L905.08 551.145L905.156 548.981L904.237 548.158L904.115 551.631L903.307 552.156L903.434 548.525L899.519 545.296L894.577 549.831C894.98 549.608 895.39 549.498 895.807 549.513C896.145 549.524 896.481 549.592 896.793 549.705C897.493 550 897.951 550.468 898.166 551.107ZM914.718 571.699L919.488 575.309L928.26 569.643L928.665 558.064L927.792 558.191L923.765 554.608L915.803 559.703L915.407 571.035L914.718 571.699ZM937.965 555.701C937.466 555.435 936.981 555.125 936.53 554.782L929.973 559.057L929.705 566.724L930.24 567.217L934.071 567.351L928.8 575.825C929.368 575.371 929.843 575.037 930.223 574.802C930.926 574.375 931.723 574.177 932.613 574.208C933.436 574.237 934.097 574.362 934.62 574.572C935.142 574.793 935.671 575.15 936.206 575.677L942.701 570.925L942.973 563.146L942.516 562.656L938.291 562.508L938.305 562.114L942.288 555.649C941.885 555.872 941.565 555.996 941.326 556.033C941.088 556.07 940.705 556.068 940.175 556.049L939.353 556.02C938.812 556.002 938.353 555.895 937.965 555.701ZM943.221 558.966L945.508 559.046L945.029 572.756L944.439 573.808L945.78 573.855L948.542 576.164L952.442 572.066L950.82 572.01L949.789 570.822L950.186 559.491L952.574 556.685L950.287 556.605L950.55 549.062L945.721 553.285L945.616 556.284L943.221 558.966ZM768.092 553.221L771.088 555.617L770.767 564.817L769.738 565.854L767.705 563.965L768.092 553.221ZM843.957 572.077C844.572 572.55 844.868 573.124 844.844 573.812C844.833 574.128 844.791 574.363 844.74 574.52C844.574 574.751 844.445 574.904 844.363 574.981C844.141 575.187 843.866 575.313 843.56 575.348C843.22 575.392 842.776 575.207 842.237 574.805C841.698 574.402 840.871 574.181 839.767 574.143C839.057 574.118 838.412 574.163 837.821 574.278C837.242 574.394 836.626 574.598 835.984 574.892L842.002 567.978L841.97 568.892C841.951 569.422 841.981 569.852 842.059 570.204C842.138 570.546 842.329 570.891 842.633 571.218C843.074 571.504 843.515 571.802 843.957 572.077ZM839.446 555.235L842.366 557.549L842.054 566.479L841.153 567.396L839.098 565.19L839.446 555.235ZM720.102 557.993L720.304 552.221L723.062 555.952L720.102 557.993ZM787.96 553.835L785.112 558.522L783.095 558.451L783.276 553.276C784.047 553.8 784.894 554.089 785.818 554.121C786.551 554.135 787.265 554.047 787.96 553.835ZM863.242 556.144L866.236 558.585L865.914 567.785L864.897 568.822L862.866 566.888L863.242 556.144ZM783.738 561.352L786.622 561.453L786.444 566.549C786.044 566.388 785.631 566.261 785.216 566.168C784.936 566.124 784.373 566.082 783.506 566.052C782.999 566.023 782.501 566.062 782.001 566.157C781.581 566.244 781.068 566.407 780.485 566.624L783.738 561.352ZM903.216 554.76L904.029 554.111L903.24 576.661L902.468 576.16L903.216 554.76ZM904.996 553.558L907.461 552.098L909.152 553.421L908.633 568.27C907.827 567.768 907.396 567.504 907.318 567.468L906.46 567.155C905.824 566.975 905.176 566.795 904.539 566.614L904.996 553.558ZM694.009 547.94C694.268 547.949 694.483 547.934 694.643 547.883L694.14 562.258C693.131 562.72 692.029 562.941 690.914 562.902C690.26 562.879 689.598 562.777 688.95 562.596C688.302 562.416 687.791 562.184 687.429 561.911L692.082 557.569L692.427 547.693C692.615 547.801 692.816 547.876 693.029 547.894C693.254 547.913 693.4 547.93 693.479 547.933L694.009 547.94ZM920.559 558.537L923.556 560.933L923.234 570.134L922.25 571.172L920.184 569.282L920.559 558.537ZM741.935 548.55L743.44 547.451L746.375 550.635L745.879 564.819L744.607 566.039L741.438 562.767L741.935 548.55ZM938.476 559.162C938.816 559.117 939.157 559.039 939.466 558.914L936.617 563.601L934.6 563.531L934.781 558.356C935.541 558.879 936.433 559.17 937.357 559.202C937.763 559.216 938.136 559.195 938.476 559.162ZM935.254 566.444L938.138 566.544L937.96 571.64C937.56 571.48 937.147 571.352 936.732 571.259C936.452 571.204 935.889 571.173 935.01 571.142C934.504 571.113 933.995 571.152 933.506 571.248C933.006 571.366 932.504 571.518 932.023 571.716L935.254 566.444ZM752.313 548.912L753.784 547.811L756.753 550.997L756.257 565.18L754.951 566.399L751.827 563.13L752.313 548.912Z" fill="white"/>
</g>
<g clip-path="url(#clip1_2_45)">
<path d="M1114.71 565.722L1114.19 580.57L1108.77 580.381L1109.29 565.534L1103.82 565.343L1103.98 560.616L1120.33 561.186L1120.17 565.913L1114.71 565.722Z" fill="white"/>
<path d="M1132.51 575.297L1123.91 574.997C1124.02 576.63 1124.94 577.376 1126.32 577.424C1127.6 577.469 1128.68 577.227 1130.14 576.518L1131.95 579.809C1130.1 580.815 1128.21 581.354 1125.92 581.274C1121.51 581.12 1119.19 577.905 1119.35 573.395C1119.53 568.327 1122.46 565.838 1126.31 565.972C1130.34 566.112 1132.75 568.85 1132.56 574.306C1132.54 574.74 1132.53 575.05 1132.51 575.297ZM1126.04 569.703C1124.9 569.663 1124.24 570.431 1124.02 571.866L1128.21 572.013C1128 570.515 1127.53 569.754 1126.04 569.703Z" fill="white"/>
<path d="M1141.63 581.837C1137.33 581.687 1134.86 578.855 1135.04 573.911C1135.19 569.4 1137.59 566.381 1142.28 566.544C1145.05 566.641 1146.58 567.982 1147.79 570.088L1144.23 572.602C1143.58 571.291 1143.12 570.655 1142.04 570.617C1140.76 570.572 1140.06 571.836 1139.98 574.161C1139.9 576.485 1140.56 577.703 1141.93 577.751C1142.88 577.784 1143.57 577.281 1144.54 575.933L1147.63 578.54C1145.85 580.991 1144.23 581.928 1141.63 581.837Z" fill="white"/>
<path d="M1158.77 582.125L1159.06 573.786C1159.13 571.88 1158.51 571.362 1157.47 571.326C1156.41 571.289 1155.75 571.762 1155.69 573.622L1155.4 582.007L1150.37 581.832L1151.01 563.45L1156.11 561.611L1155.88 568.306C1156.83 567.641 1157.87 567.088 1159.6 567.148C1162.82 567.26 1164.28 569.468 1164.14 573.327L1163.83 582.301L1158.77 582.125Z" fill="white"/>
<path d="M1175.84 583.03C1170.03 582.828 1167.08 578.411 1167.28 572.63C1167.5 566.337 1171.31 562.669 1176.56 562.851C1181.35 563.019 1183.18 565.162 1184.4 568.897L1179.43 570.633C1178.8 568.795 1178.17 567.625 1176.38 567.562C1174.12 567.484 1173.06 569.713 1172.96 572.812C1172.85 575.803 1173.71 578.208 1176.06 578.29C1177.76 578.349 1178.52 577.444 1179.64 575.637L1184.13 578.23C1182.74 580.773 1180.48 583.192 1175.84 583.03Z" fill="white"/>
<path d="M1196.65 574.29C1196.04 573.571 1195.33 573.018 1194.35 572.984C1193.13 572.942 1192.35 573.504 1192.29 575.287L1192.01 583.284L1186.98 583.109L1187.5 568.431L1192.52 568.607L1192.49 569.676C1193.38 568.869 1194.38 568.376 1195.66 568.421C1196.73 568.458 1197.43 568.731 1198 569.124L1196.65 574.29Z" fill="white"/>
<path d="M1208.27 583.851L1208.3 582.874C1207.38 583.54 1206.31 584.093 1204.61 584.033C1201.39 583.921 1199.93 581.713 1200.07 577.854L1200.38 568.881L1205.44 569.057L1205.15 577.395C1205.08 579.302 1205.7 579.82 1206.74 579.856C1207.77 579.892 1208.42 579.418 1208.49 577.558L1208.78 569.173L1213.84 569.35L1213.33 584.027L1208.27 583.851Z" fill="white"/>
<path d="M1225.35 584.446L1225.64 576.108C1225.7 574.201 1225.09 573.683 1224.05 573.647C1222.98 573.61 1222.33 574.084 1222.27 575.944L1221.97 584.328L1216.95 584.153L1217.46 569.476L1222.49 569.651L1222.45 570.628C1223.4 569.962 1224.45 569.409 1226.18 569.47C1229.4 569.582 1230.85 571.789 1230.72 575.649L1230.4 584.622L1225.35 584.446Z" fill="white"/>
<path d="M1240.18 585.274C1235.88 585.124 1233.41 582.291 1233.59 577.347C1233.74 572.837 1236.14 569.817 1240.83 569.98C1243.6 570.077 1245.13 571.418 1246.34 573.524L1242.78 576.038C1242.13 574.728 1241.68 574.091 1240.59 574.053C1239.31 574.008 1238.61 575.272 1238.53 577.597C1238.45 579.922 1239.11 581.139 1240.48 581.187C1241.43 581.22 1242.12 580.717 1243.09 579.37L1246.18 581.976C1244.4 584.427 1242.78 585.364 1240.18 585.274Z" fill="white"/>
<path d="M1257.32 585.561L1257.61 577.223C1257.68 575.316 1257.06 574.798 1256.02 574.762C1254.96 574.725 1254.31 575.199 1254.24 577.059L1253.95 585.443L1248.92 585.268L1249.56 566.887L1254.66 565.047L1254.43 571.743C1255.38 571.078 1256.42 570.524 1258.15 570.585C1261.37 570.697 1262.83 572.904 1262.69 576.764L1262.38 585.737L1257.32 585.561Z" fill="white"/>
<path d="M1025.91 549.498L1025.52 560.688L1036.69 561.078L1035.91 583.442L1047.06 583.831L1047.84 561.467L1059.01 561.856L1059.4 550.666L1025.91 549.498Z" fill="white"/>
<path d="M1069.77 573.42L1070.16 562.245L1059.01 561.856L1058.23 584.221L1091.7 585.388L1092.09 574.198L1069.77 573.42Z" fill="white"/>
<path d="M1092.88 551.833L1070.55 551.055L1070.16 562.245L1092.48 563.023L1092.88 551.833Z" fill="white"/>
</g>
<g clip-path="url(#clip2_2_45)">
<path d="M1495.99 595.513L1502.49 595.74C1502.71 596.568 1503.54 597.417 1505.15 597.473C1507.32 597.549 1508.12 596.224 1508.19 594.226L1508.24 592.802L1508.1 592.797C1506.98 594.011 1505.52 594.881 1503.42 594.808C1499.27 594.663 1495.78 591.475 1495.99 585.487C1496.18 580.003 1499.29 575.829 1503.76 575.985C1506.33 576.075 1507.86 577.164 1508.84 578.839L1508.95 578.843L1509.03 576.744L1515.45 576.968L1514.87 593.566C1514.77 596.628 1513.61 598.977 1511.95 600.352C1510.22 601.788 1507.81 602.309 1505.09 602.214C1499.98 602.036 1496.49 599.805 1495.99 595.513ZM1508.78 585.61C1508.86 583.223 1507.79 581.257 1505.83 581.188C1503.93 581.122 1502.66 582.791 1502.57 585.393C1502.48 587.959 1503.63 589.849 1505.52 589.915C1507.48 589.991 1508.69 588.14 1508.78 585.61ZM1489.02 579.321L1489.13 579.325C1490.61 576.699 1492.47 575.771 1494.79 575.852C1495.32 575.871 1495.68 575.955 1495.89 576.07L1495.69 581.95L1495.54 581.945C1491.6 581.096 1489.22 582.905 1489.07 587.211L1488.79 595.226L1482.03 594.99L1482.7 575.826L1489.13 576.051L1489.02 579.321ZM1335.83 562.997L1349.04 563.458C1351.54 563.545 1353.44 564.216 1354.77 565.37C1356.26 566.667 1357.01 568.551 1356.94 570.757C1356.85 573.324 1355.75 574.89 1353.58 575.815L1353.58 575.923C1356.33 576.947 1357.85 579.498 1357.75 582.524C1357.64 585.406 1356.46 587.618 1354.59 588.906C1353.02 589.959 1351 590.422 1348.36 590.329L1334.89 589.859L1335.83 562.997ZM1347.67 584.346C1349.27 584.402 1350.48 583.48 1350.55 581.697C1350.61 579.843 1349.36 578.906 1347.82 578.853L1342.61 578.671L1342.42 584.156L1347.67 584.339L1347.67 584.346ZM1347.35 573.921C1348.77 573.971 1349.84 573.223 1349.89 571.656C1349.95 570.125 1348.9 569.34 1347.47 569.29L1342.94 569.132L1342.78 573.761L1347.35 573.921Z" fill="white"/>
<path d="M1359.61 563.826L1366.54 564.068L1365.6 590.93L1358.67 590.689L1359.61 563.826ZM1367.26 581.423C1367.47 575.371 1371.54 571.41 1377.61 571.622C1383.69 571.834 1387.4 576.066 1387.19 582.118C1386.97 588.214 1382.98 592.134 1376.9 591.922C1370.83 591.717 1367.04 587.519 1367.26 581.423ZM1380.33 581.879C1380.44 578.529 1379.44 576.393 1377.38 576.321C1375.31 576.249 1374.23 578.313 1374.12 581.663C1374 585.048 1374.93 587.182 1376.99 587.254C1379.06 587.334 1380.21 585.265 1380.33 581.879ZM1387.97 582.146C1388.18 576.093 1392.25 572.133 1398.33 572.345C1404.4 572.556 1408.12 576.788 1407.9 582.841C1407.69 588.936 1403.69 592.856 1397.62 592.644C1391.54 592.44 1387.76 588.241 1387.97 582.146ZM1401.04 582.601C1401.16 579.252 1400.16 577.115 1398.09 577.043C1396.02 576.971 1394.95 579.035 1394.83 582.385C1394.71 585.771 1395.64 587.904 1397.71 587.977C1399.78 588.056 1400.93 585.987 1401.04 582.601ZM1409.56 573.276L1415.99 573.5L1415.89 576.383L1415.99 576.386C1417.35 574.188 1419.15 573.035 1421.9 573.131C1424.33 573.215 1426.11 574.486 1426.97 576.625L1427.07 576.629C1428.73 574.153 1430.8 573.441 1433.16 573.523C1437.62 573.679 1439.43 577.024 1439.28 581.437L1438.86 593.478L1432.11 593.242L1432.48 582.417C1432.55 580.454 1431.99 579.154 1430.28 579.094C1428.6 579.035 1427.69 580.572 1427.61 582.643L1427.25 593.08L1420.49 592.844L1420.87 582.012C1420.94 580.049 1420.38 578.749 1418.66 578.689C1416.98 578.63 1416.07 580.167 1416 582.238L1415.63 592.675L1408.89 592.44L1409.56 573.276ZM1447.19 591.278L1447.12 591.275L1447.03 593.77L1440.6 593.546L1441.54 566.683L1448.29 566.919L1447.95 576.608L1448.06 576.612C1449.4 574.982 1451.15 574.15 1453.61 574.236C1458.43 574.404 1461.07 578.851 1460.87 584.616C1460.64 591.135 1457.48 594.767 1452.48 594.593C1450.4 594.528 1448.29 593.454 1447.19 591.278ZM1454.01 584.312C1454.12 581.214 1453.05 579.175 1451.01 579.104C1448.94 579.032 1447.55 580.984 1447.44 584.082C1447.33 587.145 1448.58 589.225 1450.65 589.297C1452.72 589.362 1453.9 587.41 1454.01 584.312ZM1461.73 584.653C1461.94 578.665 1466.04 574.641 1471.79 574.841C1474.65 574.941 1476.84 575.91 1478.46 577.571C1480.6 579.783 1481.48 583.168 1481.27 587.119L1468.38 586.669C1468.58 589.066 1469.68 590.321 1471.72 590.392C1472.9 590.433 1473.95 589.937 1474.43 588.665L1480.93 588.892C1479.64 593.23 1476.16 595.325 1471.34 595.157C1465.37 594.942 1461.51 590.777 1461.73 584.653ZM1468.51 582.888L1474.65 583.103C1474.62 580.784 1473.38 579.525 1471.78 579.469C1469.92 579.404 1468.83 580.69 1468.51 582.888Z" fill="white"/>
</g>
<g clip-path="url(#clip3_2_45)">
<path d="M1614 596.326L1614.63 578.257C1614.67 577.317 1614.9 576.619 1615.36 576.164C1615.79 575.709 1616.37 575.494 1617.05 575.517C1617.75 575.542 1618.32 575.797 1618.72 576.282C1619.14 576.767 1619.33 577.479 1619.29 578.419L1618.66 596.489C1618.63 597.429 1618.4 598.152 1617.94 598.607C1617.48 599.062 1616.92 599.277 1616.22 599.253C1615.54 599.229 1615 598.975 1614.6 598.491C1614.18 597.979 1613.97 597.266 1614 596.326Z" fill="white"/>
<path d="M1739.87 603.538C1733.36 603.311 1728.24 597.8 1728.47 591.272C1728.7 584.744 1734.19 579.602 1740.7 579.829C1747.21 580.056 1752.33 585.568 1752.1 592.096C1751.87 598.65 1746.4 603.766 1739.87 603.538ZM1740.53 584.634C1736.65 584.498 1733.39 587.548 1733.26 591.439C1733.12 595.329 1736.16 598.599 1740.04 598.734C1743.92 598.869 1747.18 595.819 1747.31 591.929C1747.45 588.064 1744.41 584.769 1740.53 584.634Z" fill="white"/>
<path d="M1686.84 601.689C1680.34 601.463 1675.21 595.951 1675.44 589.423C1675.67 582.895 1681.17 577.753 1687.67 577.98C1694.18 578.207 1699.31 583.719 1699.08 590.247C1698.85 596.801 1693.35 601.916 1686.84 601.689ZM1687.51 582.785C1683.63 582.649 1680.37 585.699 1680.23 589.59C1680.09 593.48 1683.13 596.75 1687.01 596.885C1690.89 597.02 1694.15 593.97 1694.29 590.08C1694.42 586.215 1691.38 582.92 1687.51 582.785Z" fill="white"/>
<path d="M1724.69 591.14C1724.78 588.529 1724.01 586.071 1722.65 584.062C1720.66 581.143 1717.4 579.147 1713.63 578.885C1713.5 578.881 1713.39 578.877 1713.26 578.872L1707.33 578.665C1706.31 578.63 1705.58 578.84 1705.12 579.294C1704.66 579.749 1704.4 580.472 1704.36 581.516L1703.74 599.35C1703.7 600.395 1703.91 601.134 1704.34 601.62C1704.76 602.105 1705.51 602.366 1706.5 602.401L1712.43 602.608C1712.56 602.612 1712.67 602.616 1712.8 602.621C1716.58 602.648 1719.95 600.883 1722.16 598.084C1723.66 596.15 1724.6 593.751 1724.69 591.14ZM1713.46 597.755C1712.89 597.761 1712.26 597.765 1711.61 597.743L1708.51 597.635L1709.01 583.534L1712.11 583.642C1712.76 583.665 1713.38 583.687 1713.95 583.759C1716 584.066 1717.73 585.276 1718.79 586.934C1719.53 588.084 1719.95 589.485 1719.9 590.973C1719.85 592.461 1719.33 593.803 1718.51 594.898C1717.34 596.531 1715.53 597.592 1713.46 597.755Z" fill="white"/>
<path d="M1669.16 577.439C1668.31 577.148 1667.36 577.455 1666.84 578.195L1659.33 588.835L1652.58 577.697C1652.11 576.923 1651.18 576.551 1650.31 576.782C1649.45 577.013 1648.82 577.828 1648.79 578.742L1648.11 598.09C1648.07 599.239 1648.95 600.237 1650.09 600.277C1651.21 600.316 1652.18 599.409 1652.22 598.234L1652.66 585.779L1657.44 593.684C1657.44 593.684 1657.44 593.684 1657.44 593.71C1657.44 593.71 1657.44 593.736 1657.46 593.737C1657.49 593.79 1657.51 593.843 1657.56 593.871C1657.59 593.898 1657.59 593.898 1657.61 593.925C1657.64 593.952 1657.66 594.005 1657.69 594.032C1657.71 594.059 1657.74 594.086 1657.76 594.113C1657.79 594.14 1657.81 594.141 1657.81 594.167C1657.86 594.195 1657.89 594.222 1657.94 594.276L1657.96 594.303C1658.01 594.331 1658.07 594.359 1658.09 594.386C1658.12 594.387 1658.12 594.413 1658.12 594.413C1658.14 594.44 1658.19 594.442 1658.22 594.469C1658.42 594.581 1658.63 594.64 1658.86 594.675C1658.92 594.676 1658.94 594.677 1658.99 594.679C1659.02 594.68 1659.05 594.681 1659.07 594.682C1659.1 594.683 1659.12 594.684 1659.15 594.685C1659.2 594.686 1659.23 594.687 1659.28 594.689C1659.49 594.67 1659.72 594.626 1659.94 594.529C1659.96 594.504 1660.02 594.506 1660.04 594.48L1660.07 594.455C1660.12 594.431 1660.18 594.407 1660.2 594.381C1660.23 594.382 1660.23 594.356 1660.23 594.356C1660.28 594.332 1660.31 594.307 1660.36 594.256C1660.39 594.231 1660.42 594.232 1660.42 594.206C1660.44 594.181 1660.47 594.155 1660.5 594.13C1660.52 594.105 1660.55 594.08 1660.58 594.029C1660.61 594.003 1660.61 594.003 1660.63 593.978C1660.66 593.927 1660.71 593.903 1660.74 593.851L1660.77 593.826C1660.77 593.826 1660.77 593.826 1660.77 593.8L1666.09 586.247L1665.65 598.702C1665.61 599.851 1666.49 600.849 1667.64 600.889C1668.76 600.928 1669.73 600.021 1669.77 598.846L1670.44 579.497C1670.58 578.587 1670.01 577.73 1669.16 577.439Z" fill="white"/>
<path d="M1641.08 599.388L1625.75 598.853C1624.94 598.825 1624.07 598.298 1623.76 597.503C1623.45 596.708 1623.44 595.635 1624.17 594.798L1637.2 580.638L1626.84 580.277C1625.72 580.238 1624.82 579.213 1624.86 578.012C1624.9 576.811 1625.84 576.085 1626.98 576.125L1640.94 576.612C1641.74 576.64 1642.57 576.8 1643.27 577.634C1643.92 578.389 1643.82 579.98 1643.06 580.895L1630.46 594.625L1641.23 595.001C1642.38 595.041 1643.15 596.061 1643.11 597.262C1643.07 598.464 1642.22 599.428 1641.08 599.388Z" fill="white"/>
<path d="M1598.65 598.614C1595.24 598.495 1592.21 597.03 1590.09 594.499C1588.24 592.29 1587.22 589.405 1587.32 586.585C1587.62 577.785 1595.03 574.75 1599.63 574.91C1604.16 575.068 1607.39 577.403 1607.54 577.513C1608.54 578.253 1608.77 579.647 1608.03 580.667C1607.32 581.688 1605.93 581.901 1604.94 581.187C1604.89 581.159 1602.57 579.536 1599.48 579.428C1596.59 579.327 1592.54 581.094 1592.34 586.76C1592.23 589.972 1594.49 593.868 1598.86 594.02C1601.33 594.107 1603.08 593.514 1604.11 592.896L1604.23 589.554L1600.85 589.436C1599.62 589.393 1598.67 588.34 1598.71 587.113C1598.76 585.86 1599.78 584.902 1601 584.945L1606.65 585.142C1607.88 585.184 1608.83 586.237 1608.79 587.465L1608.55 594.175C1608.53 594.776 1608.28 595.368 1607.82 595.771C1606.28 597.181 1602.94 598.764 1598.65 598.614Z" fill="white"/>
</g>
<defs>
<filter id="filter0_d_2_45" x="0.597656" y="0.720734" width="2430.4" height="1146.21" filterUnits="userSpaceOnUse" color-interpolation-filters="sRGB">
<feFlood flood-opacity="0" result="BackgroundImageFix"/>
<feColorMatrix in="SourceAlpha" type="matrix" values="0 0 0 0 0 0 0 0 0 0 0 0 0 0 0 0 0 0 127 0" result="hardAlpha"/>
<feMorphology radius="225" operator="dilate" in="SourceAlpha" result="effect1_dropShadow_2_45"/>
<feOffset/>
<feGaussianBlur stdDeviation="125"/>
<feComposite in2="hardAlpha" operator="out"/>
<feColorMatrix type="matrix" values="0 0 0 0 0 0 0 0 0 0 0 0 0 0 0 0 0 0 0.32 0"/>
<feBlend mode="normal" in2="BackgroundImageFix" result="effect1_dropShadow_2_45"/>
<feBlend mode="normal" in="SourceGraphic" in2="effect1_dropShadow_2_45" result="shape"/>
</filter>
<linearGradient id="paint0_linear_2_45" x1="738.5" y1="0" x2="738.5" y2="140" gradientUnits="userSpaceOnUse">
<stop stop-color="#CE9FFC"/>
<stop offset="0.505208" stop-color="#A582F7"/>
<stop offset="1" stop-color="#7367F0"/>
</linearGradient>
<linearGradient id="paint1_linear_2_45" x1="738.5" y1="0" x2="738.5" y2="140" gradientUnits="userSpaceOnUse">
<stop stop-color="#CE9FFC"/>
<stop offset="0.505208" stop-color="#A582F7"/>
<stop offset="1" stop-color="#7367F0"/>
</linearGradient>
<clipPath id="clip0_2_45">
<rect width="274" height="40" fill="white" transform="matrix(0.999393 0.0348477 -0.0349514 0.999389 680 535)"/>
</clipPath>
<clipPath id="clip1_2_45">
<rect width="238" height="40" fill="white" transform="matrix(0.999393 0.0348477 -0.0349514 0.999389 1026 547)"/>
</clipPath>
<clipPath id="clip2_2_45">
<rect width="180" height="40" fill="white" transform="matrix(0.999393 0.0348477 -0.0349514 0.999389 1336 558)"/>
</clipPath>
<clipPath id="clip3_2_45">
<rect width="165" height="40" fill="white" transform="matrix(0.999393 0.0348477 -0.0349514 0.999389 1588 567)"/>
</clipPath>
</defs>
</svg>
