<svg width="36" height="41" viewBox="0 0 36 41" fill="none" xmlns="http://www.w3.org/2000/svg">
<path d="M31.5308 7.97106C31.5025 7.76531 31.3222 7.65144 31.1733 7.63889C30.0749 7.55636 28.9764 7.47448 27.8779 7.39326C27.8779 7.39326 25.6926 5.22366 25.4527 4.98352C25.2127 4.74352 24.744 4.81652 24.562 4.87007C24.5353 4.87796 24.0846 5.01706 23.3391 5.24776C22.609 3.14708 21.3207 1.21664 19.0541 1.21664C18.9915 1.21664 18.9271 1.21917 18.8627 1.22284C18.2181 0.37036 17.4196 0 16.7299 0C11.45 0 8.92755 6.60039 8.13665 9.95449C6.08502 10.5902 4.62753 11.0422 4.44137 11.1007C3.29618 11.4599 3.25996 11.496 3.10959 12.5751C2.99642 13.392 0 36.5648 0 36.5648L23.3488 40.9395L35.9999 38.2026C35.9999 38.2026 31.5589 8.17682 31.5309 7.97106H31.5308ZM22.0486 5.64687L20.0729 6.25836C20.0736 6.11912 20.0743 5.98214 20.0743 5.83233C20.0743 4.52677 19.8931 3.47558 19.6023 2.64227C20.7702 2.78884 21.548 4.11765 22.0486 5.64687ZM18.1536 2.90116C18.4783 3.71474 18.6894 4.88233 18.6894 6.45791C18.6894 6.53852 18.6887 6.61223 18.688 6.68678C17.4031 7.08476 16.007 7.51685 14.6077 7.95035C15.3934 4.91813 16.8661 3.4536 18.1536 2.90116ZM16.5849 1.41619C16.8128 1.41619 17.0424 1.49356 17.2621 1.64478C15.5699 2.44102 13.7562 4.44644 12.9902 8.45121L9.76495 9.45011C10.6621 6.39548 12.7924 1.41619 16.5848 1.41619H16.5849Z" fill="#95BF46"/>
<path d="M31.1735 7.63887C30.0751 7.55633 28.9766 7.47446 27.8781 7.39323C27.8781 7.39323 25.6928 5.22364 25.4529 4.98349C25.3631 4.89414 25.2421 4.84834 25.1155 4.82861L23.3501 40.9392L36.0001 38.2026C36.0001 38.2026 31.5589 8.1768 31.531 7.97104C31.5027 7.76528 31.3224 7.65141 31.1735 7.63887Z" fill="#5E8E3E"/>
<path d="M19.0541 14.6292L17.4941 19.2694C17.4941 19.2694 16.1274 18.5399 14.4521 18.5399C11.996 18.5399 11.8724 20.0813 11.8724 20.4697C11.8724 22.589 17.3968 23.401 17.3968 28.3651C17.3968 32.2706 14.9197 34.7855 11.5796 34.7855C7.57164 34.7855 5.52197 32.291 5.52197 32.291L6.59514 28.7453C6.59514 28.7453 8.70203 30.5541 10.4798 30.5541C11.6415 30.5541 12.114 29.6395 12.114 28.9712C12.114 26.2067 7.58179 26.0834 7.58179 21.5409C7.58179 17.7176 10.3259 14.0178 15.8653 14.0178C17.9997 14.0178 19.0541 14.6292 19.0541 14.6292Z" fill="white"/>
</svg>
