<svg width="125" height="36" viewBox="0 0 125 36" fill="none" xmlns="http://www.w3.org/2000/svg">
<path d="M0 6.71167H4.32913V16.3297H13.4595V6.71167H17.7942V30.3211H13.4595V20.501H4.32913V30.3211H0V6.71167ZM31.5089 22.6311C31.5089 24.6075 29.8987 26.2158 27.9228 26.2158C25.9461 26.2158 24.3369 24.6075 24.3369 22.6311V12.4665H20.2314V22.6311C20.2314 26.8717 23.6819 30.3211 27.9228 30.3211C32.1627 30.3211 35.613 26.8717 35.613 22.6311V12.4665H31.5089V22.6311ZM47.074 12.5855C45.0375 12.5855 43.616 13.1765 42.2432 14.5241V6.71167H38.1243V21.1902C38.1243 26.6096 42.0426 30.3211 46.4448 30.3211C51.3387 30.3211 55.6266 26.5434 55.6266 21.4535C55.6266 16.4282 51.6726 12.5855 47.074 12.5855ZM47.1764 26.5107C44.3854 26.5107 42.2512 24.1797 42.2512 21.4535C42.2512 18.7269 44.3854 16.3952 47.1764 16.3952C49.5413 16.3952 51.6767 18.7269 51.6767 21.4535C51.6767 24.1797 49.5413 26.5107 47.1764 26.5107ZM62.5444 13.6232C62.5444 11.5527 63.924 10.8963 65.4343 10.8963C66.6502 10.8963 68.2592 11.8158 69.3092 12.9328L72.0017 9.78004C70.6561 7.97389 67.9306 6.72549 65.6972 6.72549C61.23 6.72549 58.0113 9.32025 58.0113 13.6232C58.0113 21.6039 67.8319 19.0741 67.8319 23.542C67.8319 24.9199 66.4858 26.1362 64.943 26.1362C62.5117 26.1362 61.723 24.9538 60.6068 23.7054L57.6175 26.7922C59.5236 29.1243 61.8875 30.3073 64.7124 30.3073C68.9488 30.3073 72.3647 27.6798 72.3647 23.5737C72.3647 14.7064 62.5444 17.4656 62.5444 13.6232ZM83.2079 12.3542C78.8063 12.3542 74.8875 16.0635 74.8875 21.4841V36H79.0061V28.1505C80.3791 29.4971 81.7999 30.089 83.8372 30.089C88.4355 30.089 92.39 26.2468 92.39 21.2215C92.39 16.1309 88.1008 12.3542 83.2079 12.3542ZM83.9398 26.2798C81.1491 26.2798 79.0146 23.9457 79.0146 21.2215C79.0146 18.4948 81.1491 16.1631 83.9398 16.1631C86.3042 16.1631 88.4399 18.4948 88.4399 21.2215C88.4399 23.9457 86.3042 26.2798 83.9398 26.2798ZM122.708 26.5107C120.278 26.5107 119.589 25.4601 119.589 23.8502V16.7236H123.365V13.1113H119.589V8.34855L115.419 10.2202V24.737C115.419 28.4487 117.98 30.3211 121.492 30.3211C122.018 30.3211 122.741 30.2871 123.136 30.1899L124.154 26.4462C123.694 26.4779 123.169 26.5107 122.708 26.5107Z" fill="#45535E"/>
<path d="M111.846 16.9336C111.056 15.5751 109.945 14.486 108.557 13.6661C107.519 13.0621 106.443 12.6787 105.231 12.514V8.1975C106.443 7.68267 107.196 6.54316 107.196 5.21377C107.196 3.4018 105.743 1.93346 103.932 1.93346C102.12 1.93346 100.642 3.4018 100.642 5.21377C100.642 6.54316 101.351 7.68267 102.563 8.1975V12.516C101.593 12.6561 100.587 12.9585 99.6687 13.4232C97.7925 11.9982 91.6402 7.32353 88.0413 4.59321C88.1266 4.28548 88.1923 3.96829 88.1923 3.63363C88.1923 1.6267 86.5671 0 84.5594 0C82.5518 0 80.9272 1.6267 80.9272 3.63363C80.9272 5.64033 82.5535 7.26751 84.5611 7.26751C85.246 7.26751 85.8794 7.06721 86.426 6.73789L87.1855 7.31407L97.6217 14.8335C97.07 15.3401 96.5562 15.9163 96.1452 16.5628C95.3122 17.8808 94.8032 19.331 94.8032 20.9128V21.2428C94.8032 22.3533 95.0141 23.4016 95.3735 24.3864C95.69 25.2463 96.1527 26.0281 96.7257 26.735L93.2621 30.2071C92.7601 30.0203 92.2149 29.982 91.6918 30.0967C91.1686 30.2114 90.6895 30.4744 90.3118 30.8541C90.0503 31.1144 89.843 31.4239 89.702 31.7648C89.5609 32.1058 89.489 32.4713 89.4902 32.8402C89.4904 33.5903 89.7827 34.2952 90.3132 34.8256C90.5733 35.0873 90.8827 35.2948 91.2236 35.4361C91.5644 35.5774 91.9299 35.6496 92.2988 35.6486C92.6679 35.6496 93.0335 35.5773 93.3744 35.436C93.7154 35.2948 94.0249 35.0873 94.2852 34.8256C94.5465 34.5653 94.7537 34.2559 94.8948 33.9151C95.0359 33.5744 95.1081 33.209 95.1072 32.8402C95.1072 32.5499 95.0624 32.2667 94.978 31.9975L98.558 28.417C99.0489 28.756 99.579 29.0414 100.149 29.2876C101.273 29.7735 102.513 30.0696 103.871 30.0696H104.12C105.621 30.0696 107.037 29.717 108.368 28.9958C109.771 28.2337 110.869 27.1914 111.698 25.8608C112.532 24.5265 112.991 23.0524 112.991 21.4305V21.3495C112.991 19.7541 112.621 18.2821 111.846 16.9336ZM107.471 24.4446C106.5 25.5244 105.383 26.1896 104.12 26.1896H103.912C103.191 26.1896 102.485 25.9903 101.795 25.6277C101.016 25.2286 100.425 24.6592 99.9403 23.9382C99.4398 23.2306 99.1682 22.458 99.1682 21.6388V21.39C99.1682 20.5847 99.3226 19.8211 99.7121 19.0999C100.128 18.3115 100.691 17.6984 101.439 17.211C102.173 16.727 102.957 16.4896 103.831 16.4896H103.912C104.704 16.4896 105.454 16.6458 106.161 17.0078C106.882 17.3939 107.471 17.9213 107.928 18.6151C108.372 19.3091 108.635 20.0577 108.72 20.8733C108.734 21.0428 108.74 21.2164 108.74 21.3823C108.74 22.4891 108.317 23.5141 107.471 24.4446Z" fill="#F8761F"/>
</svg>
