<svg width="67" height="30" viewBox="0 0 67 30" fill="none" xmlns="http://www.w3.org/2000/svg">
<path d="M6.58636 23.1301C7.62229 23.1301 8.53869 22.9408 9.33556 22.5623C10.1324 22.1639 10.7401 21.5662 11.1584 20.7693V22.7715H15.342V6.45552H10.8596V15.9881C10.8596 16.9244 10.5807 17.6815 10.0229 18.2592C9.46506 18.817 8.74787 19.0959 7.87131 19.0959C6.99475 19.0959 6.27757 18.817 5.71976 18.2592C5.16195 17.6815 4.88304 16.9244 4.88304 15.9881V6.45552H0.400635V16.3467C0.400635 18.3787 0.928563 20.0223 1.98442 21.2773C3.0602 22.5125 4.59417 23.1301 6.58636 23.1301Z" fill="white"/>
<path d="M18.6181 4.99127H23.1005V0.50886H18.6181V4.99127ZM18.6181 22.7715H23.1005V6.45552H18.6181V22.7715Z" fill="white"/>
<path d="M28.3529 22.7715H32.8353V10.3403H36.3316V6.45552H32.8353V6.21646C32.8353 4.76217 33.682 4.03502 35.3753 4.03502C35.6542 4.03502 35.9829 4.0649 36.3614 4.12467V0.299682C35.9032 0.200073 35.3753 0.150269 34.7777 0.150269C32.7456 0.150269 31.1618 0.678196 30.0263 1.73405C28.9107 2.78991 28.3529 4.28404 28.3529 6.21646V6.45552H25.6037V10.3403H28.3529V22.7715Z" fill="white"/>
<path d="M38.6372 22.7715H43.1196V13.986C43.1196 12.7707 43.4583 11.8344 44.1356 11.177C44.813 10.4996 45.6995 10.161 46.7952 10.161H48.1997V6.27622H47.2434C46.2473 6.27622 45.3608 6.46548 44.5838 6.84399C43.8268 7.20259 43.2391 7.88989 42.8208 8.9059V6.45552H38.6372V22.7715Z" fill="white"/>
<path d="M52.7042 29.4054C55.6925 29.4054 57.854 27.7021 59.1888 24.2955L66.1813 6.45552H61.3702L57.5154 16.9443L53.6605 6.45552H48.8494L55.2742 22.7715L54.9753 23.4588C54.7363 23.9967 54.4275 24.4748 54.049 24.8932C53.6704 25.3115 53.0429 25.5207 52.1664 25.5207C51.4492 25.5207 50.7718 25.4211 50.1343 25.2219V28.8974C50.473 29.0767 50.8615 29.2062 51.2998 29.2859C51.758 29.3656 52.2261 29.4054 52.7042 29.4054Z" fill="white"/>
</svg>
