<svg width="97" height="44" viewBox="0 0 97 44" fill="none" xmlns="http://www.w3.org/2000/svg">
<path d="M9.7711 33.9219C11.2781 33.9219 12.6112 33.6466 13.7705 33.096C14.9297 32.5163 15.8137 31.6469 16.4223 30.4876V33.4003H22.5083V9.66471H15.9875V23.5322C15.9875 24.8943 15.5818 25.9956 14.7703 26.836C13.9589 27.6475 12.9156 28.0532 11.6404 28.0532C10.3652 28.0532 9.32189 27.6475 8.51042 26.836C7.69895 25.9956 7.29321 24.8943 7.29321 23.5322V9.66471H0.772461V24.0538C0.772461 27.0099 1.54046 29.4009 3.07646 31.2267C4.64144 33.0235 6.87299 33.9219 9.7711 33.9219Z" fill="white"/>
<path d="M27.2742 7.5346H33.795V1.01385H27.2742V7.5346ZM27.2742 33.4003H33.795V9.66471H27.2742V33.4003Z" fill="white"/>
<path d="M41.4358 33.4003H47.9566V15.316H53.0427V9.66471H47.9566V9.31694C47.9566 7.20132 49.1883 6.14351 51.6516 6.14351C52.0574 6.14351 52.5356 6.18698 53.0862 6.27392V0.709546C52.4196 0.56464 51.6516 0.492188 50.7822 0.492188C47.8261 0.492188 45.5221 1.26019 43.8702 2.79619C42.2473 4.33219 41.4358 6.50577 41.4358 9.31694V9.66471H37.4364V15.316H41.4358V33.4003Z" fill="white"/>
<path d="M56.3969 33.4003H62.9176V20.6196C62.9176 18.8517 63.4103 17.4896 64.3956 16.5332C65.381 15.5479 66.6707 15.0552 68.2646 15.0552H70.3078V9.40388H68.9167C67.4676 9.40388 66.178 9.6792 65.0477 10.2298C63.9464 10.7515 63.0915 11.7514 62.4829 13.2294V9.66471H56.3969V33.4003Z" fill="white"/>
<path d="M76.8608 43.051C81.208 43.051 84.3524 40.5731 86.2942 35.6173L96.4665 9.66471H89.4676L83.8597 24.9233L78.2519 9.66471H71.253L80.5994 33.4003L80.1646 34.4001C79.8169 35.1826 79.3677 35.8781 78.817 36.4867C78.2664 37.0953 77.3535 37.3996 76.0783 37.3996C75.035 37.3996 74.0496 37.2547 73.1222 36.9649V42.3119C73.6149 42.5728 74.1801 42.7612 74.8176 42.8771C75.4842 42.993 76.1653 43.051 76.8608 43.051Z" fill="white"/>
</svg>
