<svg width="48" height="48" viewBox="0 0 48 48" fill="none" xmlns="http://www.w3.org/2000/svg">
<path d="M18 44H30C40 44 44 40 44 30V18C44 8 40 4 30 4H18C8 4 4 8 4 18V30C4 40 8 44 18 44Z" stroke="url(#paint0_linear_107_246)" stroke-width="1.5" stroke-linecap="round" stroke-linejoin="round"/>
<path d="M18.2 24V21.04C18.2 17.22 20.9 15.68 24.2 17.58L26.76 19.06L29.32 20.54C32.62 22.44 32.62 25.56 29.32 27.46L26.76 28.94L24.2 30.42C20.9 32.32 18.2 30.76 18.2 26.96V24Z" fill="url(#paint1_linear_107_246)" stroke="url(#paint2_linear_107_246)" stroke-width="1.5" stroke-miterlimit="10" stroke-linecap="round" stroke-linejoin="round"/>
<defs>
<linearGradient id="paint0_linear_107_246" x1="24" y1="4" x2="24" y2="44" gradientUnits="userSpaceOnUse">
<stop stop-color="#CE9FFC"/>
<stop offset="0.505208" stop-color="#A582F7"/>
<stop offset="1" stop-color="#7367F0"/>
</linearGradient>
<linearGradient id="paint1_linear_107_246" x1="24.9975" y1="16.7666" x2="24.9975" y2="31.2298" gradientUnits="userSpaceOnUse">
<stop stop-color="#CE9FFC"/>
<stop offset="0.505208" stop-color="#A582F7"/>
<stop offset="1" stop-color="#7367F0"/>
</linearGradient>
<linearGradient id="paint2_linear_107_246" x1="24.9975" y1="16.7666" x2="24.9975" y2="31.2298" gradientUnits="userSpaceOnUse">
<stop stop-color="#CE9FFC"/>
<stop offset="0.505208" stop-color="#A582F7"/>
<stop offset="1" stop-color="#7367F0"/>
</linearGradient>
</defs>
</svg>
