<svg width="22" height="22" viewBox="0 0 22 22" fill="none" xmlns="http://www.w3.org/2000/svg">
<path d="M16.5 6.56338C16.445 6.55421 16.3808 6.55421 16.3258 6.56338C15.0608 6.51754 14.0525 5.48171 14.0525 4.19838C14.0525 2.88754 15.1067 1.83337 16.4175 1.83337C17.7283 1.83337 18.7825 2.89671 18.7825 4.19838C18.7733 5.48171 17.765 6.51754 16.5 6.56338Z" stroke="white" stroke-width="1.38684" stroke-linecap="round" stroke-linejoin="round"/>
<path d="M15.5558 13.2366C16.8117 13.4474 18.1958 13.2274 19.1675 12.5766C20.46 11.7149 20.46 10.3033 19.1675 9.44161C18.1867 8.79078 16.7842 8.57077 15.5283 8.79077" stroke="white" stroke-width="1.38684" stroke-linecap="round" stroke-linejoin="round"/>
<path d="M5.4725 6.56338C5.5275 6.55421 5.59167 6.55421 5.64667 6.56338C6.91167 6.51754 7.92 5.48171 7.92 4.19838C7.92 2.88754 6.86584 1.83337 5.555 1.83337C4.24417 1.83337 3.19 2.89671 3.19 4.19838C3.19917 5.48171 4.2075 6.51754 5.4725 6.56338Z" stroke="white" stroke-width="1.38684" stroke-linecap="round" stroke-linejoin="round"/>
<path d="M6.41667 13.2366C5.16084 13.4474 3.77667 13.2274 2.80501 12.5766C1.51251 11.7149 1.51251 10.3033 2.80501 9.44161C3.78584 8.79078 5.18834 8.57077 6.44417 8.79077" stroke="white" stroke-width="1.38684" stroke-linecap="round" stroke-linejoin="round"/>
<path d="M11 13.4108C10.945 13.4016 10.8808 13.4016 10.8258 13.4108C9.56082 13.365 8.55249 12.3291 8.55249 11.0458C8.55249 9.73495 9.60666 8.68079 10.9175 8.68079C12.2283 8.68079 13.2825 9.74412 13.2825 11.0458C13.2733 12.3291 12.265 13.3741 11 13.4108Z" stroke="white" stroke-width="1.38684" stroke-linecap="round" stroke-linejoin="round"/>
<path d="M8.33247 16.2983C7.03997 17.16 7.03997 18.5717 8.33247 19.4333C9.79914 20.4142 12.2008 20.4142 13.6675 19.4333C14.96 18.5717 14.96 17.16 13.6675 16.2983C12.21 15.3267 9.79914 15.3267 8.33247 16.2983Z" stroke="white" stroke-width="1.38684" stroke-linecap="round" stroke-linejoin="round"/>
</svg>
